<svg xmlns="http://www.w3.org/2000/svg" width="341.313" height="247.938" viewBox="0 0 341.313 247.938">
  <metadata><?xpacket begin="﻿" id="W5M0MpCehiHzreSzNTczkc9d"?>
<x:xmpmeta xmlns:x="adobe:ns:meta/" x:xmptk="Adobe XMP Core 5.6-c142 79.160924, 2017/07/13-01:06:39        ">
   <rdf:RDF xmlns:rdf="http://www.w3.org/1999/02/22-rdf-syntax-ns#">
      <rdf:Description rdf:about=""/>
   </rdf:RDF>
</x:xmpmeta>
                                                                                                    
                                                                                                    
                                                                                                    
                                                                                                    
                                                                                                    
                                                                                                    
                                                                                                    
                                                                                                    
                                                                                                    
                                                                                                    
                                                                                                    
                                                                                                    
                                                                                                    
                                                                                                    
                                                                                                    
                                                                                                    
                                                                                                    
                                                                                                    
                                                                                                    
                                                                                                    
                           
<?xpacket end="w"?></metadata>
<defs>
    <style>
      .cls-1 {
        fill: #ffffff;
        fill-rule: evenodd;
      }
    </style>
  </defs>
  <path id="adventure" class="cls-1" d="M95.181,77.892a0.231,0.231,0,0,0,.238-0.28V71.288a0.231,0.231,0,0,0-.238-0.28H85.366l0.048-31.79a0.231,0.231,0,0,0-.238-0.28H79.886a0.231,0.231,0,0,0-.238.28L79.6,77.612c0,0.187.063,0.28,0.191,0.28h15.39Zm16.176-.98a10.955,10.955,0,0,0,3.383-4.086A12.494,12.494,0,0,0,116,67.2L115.955,49.46a12.323,12.323,0,0,0-1.263-5.6,10.868,10.868,0,0,0-3.359-4.03,7.8,7.8,0,0,0-4.669-1.511,7.94,7.94,0,0,0-4.67,1.511,10.68,10.68,0,0,0-3.406,4.03,12.31,12.31,0,0,0-1.263,5.6L97.277,67.2a12.293,12.293,0,0,0,1.287,5.625,11.159,11.159,0,0,0,3.406,4.086A7.926,7.926,0,0,0,111.357,76.912Zm-7.219-6.548A4.914,4.914,0,0,1,103.09,67.2V49.46a4.776,4.776,0,0,1,1.048-3.162,3.183,3.183,0,0,1,2.526-1.259,3.073,3.073,0,0,1,2.525,1.287,4.954,4.954,0,0,1,1,3.134L110.237,67.2a4.908,4.908,0,0,1-1.072,3.106A3.024,3.024,0,0,1,104.138,70.364Zm20.678,7.528a0.387,0.387,0,0,0,.429-0.448L124.912,57.3l8.243,20.6h4.193c0.158,0,.238-0.112.238-0.336l-0.048-38.17q0-.447-0.286-0.448h-4.717a0.388,0.388,0,0,0-.429.448l0.239,21.6-8.053-22.051H120a0.369,0.369,0,0,0-.381.448L119.671,77.5a0.341,0.341,0,0,0,.381.392h4.764Zm30.351-.952a10.811,10.811,0,0,0,3.359-4.058,12.619,12.619,0,0,0,1.263-5.681V57.911c0-.186-0.064-0.28-0.191-0.28h-8.91a0.231,0.231,0,0,0-.238.28V64.18a0.23,0.23,0,0,0,.238.28h3.336V67.2A4.961,4.961,0,0,1,153,70.392a3.136,3.136,0,0,1-2.549,1.287,3.1,3.1,0,0,1-2.478-1.315,4.914,4.914,0,0,1-1.048-3.162V49.46A4.876,4.876,0,0,1,148,46.326a3.1,3.1,0,0,1,2.454-1.343,3.063,3.063,0,0,1,2.549,1.4,5.813,5.813,0,0,1,1.025,3.526v2.127a0.184,0.184,0,0,0,.19.224h5.337a0.2,0.2,0,0,0,.238-0.224V49.46a12.635,12.635,0,0,0-1.239-5.653,10.35,10.35,0,0,0-3.359-4,8.086,8.086,0,0,0-4.741-1.483,7.832,7.832,0,0,0-4.646,1.511,10.726,10.726,0,0,0-3.383,4.058,12.36,12.36,0,0,0-1.262,5.569V67.2a12.606,12.606,0,0,0,1.262,5.681,10.8,10.8,0,0,0,3.36,4.058A8.042,8.042,0,0,0,155.167,76.94Zm13.579,0.952c0.127,0,.191-0.093.191-0.28V61.157h7.147V77.612a0.23,0.23,0,0,0,.238.28h5.337a0.231,0.231,0,0,0,.238-0.28l-0.1-38.45a0.2,0.2,0,0,0-.238-0.224h-5.289a0.185,0.185,0,0,0-.19.224V54.385h-7.147l0.047-15.223a0.2,0.2,0,0,0-.238-0.224h-5.289a0.2,0.2,0,0,0-.238.224l-0.047,38.45c0,0.187.063,0.28,0.19,0.28h5.384Zm30.565-.98a10.955,10.955,0,0,0,3.383-4.086,12.5,12.5,0,0,0,1.263-5.625L203.909,49.46a12.323,12.323,0,0,0-1.262-5.6,10.861,10.861,0,0,0-3.36-4.03,7.8,7.8,0,0,0-4.669-1.511,7.935,7.935,0,0,0-4.669,1.511,10.669,10.669,0,0,0-3.407,4.03,12.31,12.31,0,0,0-1.263,5.6L185.232,67.2a12.288,12.288,0,0,0,1.286,5.625,11.154,11.154,0,0,0,3.407,4.086A7.924,7.924,0,0,0,199.311,76.912Zm-7.218-6.548a4.914,4.914,0,0,1-1.048-3.162V49.46a4.776,4.776,0,0,1,1.048-3.162,3.18,3.18,0,0,1,2.525-1.259,3.073,3.073,0,0,1,2.525,1.287,4.954,4.954,0,0,1,1,3.134L198.192,67.2a4.913,4.913,0,0,1-1.072,3.106A3.024,3.024,0,0,1,192.093,70.364Zm21.059,7.528a0.23,0.23,0,0,0,.238-0.28v-16.4h9.768a0.2,0.2,0,0,0,.238-0.224l-0.048-6.324c0-.186-0.064-0.28-0.19-0.28H213.39V45.71h9.768a0.185,0.185,0,0,0,.19-0.224V39.162a0.2,0.2,0,0,0-.238-0.224H207.863a0.185,0.185,0,0,0-.19.224l-0.1,38.45a0.231,0.231,0,0,0,.239.28h5.336Zm30.541,0a0.185,0.185,0,0,0,.19-0.224v-6.38c0-.186-0.064-0.28-0.19-0.28h-9.815V61.213h9.815a0.185,0.185,0,0,0,.19-0.224l-0.047-6.324a0.185,0.185,0,0,0-.191-0.224h-9.767V45.71h9.767a0.185,0.185,0,0,0,.191-0.224V39.218c0-.186-0.064-0.28-0.191-0.28H228.351a0.185,0.185,0,0,0-.191.224l-0.048,38.45c0,0.187.064,0.28,0.191,0.28h15.39Zm10.006,0c0.126,0,.19-0.093.19-0.28l0.048-16.455h3.145a3.719,3.719,0,0,1,2.978,1.483,5.35,5.35,0,0,1,1.215,3.5V77.724a0.159,0.159,0,0,0,.19.168h5.384a0.23,0.23,0,0,0,.238-0.28L267.04,66.139a12.605,12.605,0,0,0-2.573-7.891,9.361,9.361,0,0,0,1.286-1.707,12.352,12.352,0,0,0,1.763-6.52A12.085,12.085,0,0,0,266.23,44.4a10.628,10.628,0,0,0-3.455-3.974,8.224,8.224,0,0,0-4.74-1.483H248.41a0.185,0.185,0,0,0-.191.224l-0.095,38.45c0,0.187.063,0.28,0.191,0.28H253.7Zm0.238-32.238h4.1a3.406,3.406,0,0,1,2.644,1.287,4.828,4.828,0,0,1-.024,6.212,3.426,3.426,0,0,1-2.62,1.287h-4.1V45.654ZM22.7,177.5l-0.855-3.426,1.069-2.569L22.7,169.367l0.642-.856,0.214-1.285L23.343,165.3q0-1.069.214-3.105a4.968,4.968,0,0,1,1.283-3.1l-0.428-.857,0.428-1.927-0.428-.642,1.711-8.351,2.139,2.355a0.62,0.62,0,0,0-.214.428,1.176,1.176,0,0,0,.855,1.178,11.384,11.384,0,0,0,2.139.535q1.283,0.216,2.567.536a4.525,4.525,0,0,1,2.139,1.177,46.475,46.475,0,0,1,7.485,1.178,28.649,28.649,0,0,0,7.272.75,10.494,10.494,0,0,0,2.566-.322,10.541,10.541,0,0,1,2.566-.321l4.705,2.57,6.416-2.57,1.5-3.854,1.925-3.212,0.642-2.784,0.642-.856,0.428-.857-1.283-.428a8.948,8.948,0,0,1,.214-1.5,1.089,1.089,0,0,1,1.069-1.071l0.642-2.784-0.428-.642v-2.141l0.428-3.855,1.5-.428V129.11l-0.642-1.284,0.642-.643-0.214-1.071,1.5-1.284,0.214-2.57,1.711-4.068a3.536,3.536,0,0,0,.535-1.071c0.214-.569.428-1.178,0.642-1.82s0.428-1.248.642-1.82a4.079,4.079,0,0,0,.321-1.285l-0.214-.428,1.069-2.57-0.214-3.212-1.283-.214,0.428-1.071a4.8,4.8,0,0,0-1.6-3,33.2,33.2,0,0,0-3.636-3.319A30.675,30.675,0,0,0,69.753,95.6a7.771,7.771,0,0,0-3.422-1.178,31.727,31.727,0,0,0-8.127.964,44.622,44.622,0,0,0-6.951,2.462q-3.318,1.5-6.523,3t-6.416,2.784l-3.208,4.282q-1.073-4.5-2.032-8.779t-3.1-4.711H26.765l-3.422-.856H21.632q-1.5,0-2.994.107a6.413,6.413,0,0,0-2.353.535,22.19,22.19,0,0,0-2.353,5.032,50.113,50.113,0,0,0-1.711,6.21q-0.642,3.106-.962,5.46c-0.214,1.573-.321,2.5-0.321,2.784v2.141a1.235,1.235,0,0,1-.428.857l-0.428.642,0.428,0.214v0.643l-0.642.428,0.214,1.713v1.285c0,0.572-.073.856-0.214,0.856H9.441v1.285l-0.428.428-1.5,6.424-1.283,8.137a17.009,17.009,0,0,0-1.069,4.925,20.127,20.127,0,0,0,.107,2.249,18.74,18.74,0,0,1,.107,2.034q0,6-.214,9.422T4.843,163.05c-0.074,1.5-.18,2.751-0.321,3.748a24.313,24.313,0,0,0-.214,3.426v1.5l0.428,0.642-1.069.857v0.642q0,1.074-.107,2.891T3.453,180.93v1.928L3.239,187.14a9.016,9.016,0,0,1-.107,1.178,11.1,11.1,0,0,0-.107,1.606l0.642,5.567,2.78,1.071h4.705l4.277-1.927h5.347l1.283-.428,0.642-.429a11.974,11.974,0,0,1,.321-2.355,11.965,11.965,0,0,0,.321-2.356L22.7,185.213v-6h0V177.5Zm7.7-34.9a6.734,6.734,0,0,0-1.069.107,6.538,6.538,0,0,1-1.069.107l-1.069-.214q0.211-2.355.428-2.356c0.14,0,.214-0.569.214-1.713l0.214-3-0.428-.428,1.5-2.141c-0.287,0-.428-0.285-0.428-0.857a15.238,15.238,0,0,1,.855-3.533Q30.4,125.9,31.9,125.9a3.6,3.6,0,0,1,.855.107,3.369,3.369,0,0,0,.856.107,1.721,1.721,0,0,0,1.283-.856,3.631,3.631,0,0,0,1.176-.857q0.962-.852,2.139-1.927a27.916,27.916,0,0,1,2.353-1.927,3.861,3.861,0,0,1,2.246-.856l1.925-3.212a2.615,2.615,0,0,0,1.176-.429,2.635,2.635,0,0,1,1.176-.428l0.428-1.927h1.069L55,110.053l5.133-1.928a4.11,4.11,0,0,0,1.283-.321,4.068,4.068,0,0,1,1.283-.321l0.428,0.428-2.994,12.206-1.925,4.5-1.5,8.993-1.069,3.854q-1.073,4.071-3.529,5.033a13.721,13.721,0,0,1-5.881.749H42.163a2.172,2.172,0,0,0-.962.107,0.3,0.3,0,0,1-.214.107H39.169ZM9.334,132.429a10.592,10.592,0,0,0,.535-1.606v3.641l-0.428.856a1.94,1.94,0,0,0-.214-0.856,1.881,1.881,0,0,1-.214-0.857A3.273,3.273,0,0,1,9.334,132.429Zm-3.1,26.446a5.1,5.1,0,0,1,.321-1.392,11.624,11.624,0,0,1,.535-1.392v0.857a9.517,9.517,0,0,1-.428,3L6.233,159.3v-0.428ZM6.661,162.3v0.428c0,1-.287,1.5-0.855,1.5v-1.071a3.035,3.035,0,0,1,.428-1.713ZM9.013,137.89l0.428-1.927,0.428,0.428-0.428,2.784Zm131.635,13.7a21.8,21.8,0,0,0,2.887.214,8.274,8.274,0,0,0,2.994-.428,6.43,6.43,0,0,0,1.818-1.071c0.5-.428.889-0.782,1.176-1.07a1.227,1.227,0,0,1,.856-0.428l0.855-3,0.428-2.142-1.711.857v-0.857l-2.566-1.07a7.422,7.422,0,0,1-1.6-.322,7.5,7.5,0,0,0-1.818-.321h-5.989q-5.133,0-9.838.321t-9.838.322q0-2.781,1.176-3.426a4.442,4.442,0,0,0,1.818-2.784,0.756,0.756,0,0,1-.855-0.857,57.734,57.734,0,0,1,3.208-4.925q1.494-2.138,2.994-4.175a32.726,32.726,0,0,1,3.208-3.748,6.239,6.239,0,0,1,2.46-1.392q1.6-.531,3.208-0.963t2.78-.857a1.436,1.436,0,0,0,1.176-1.284,5.03,5.03,0,0,0,2.567-.75q1.282-.747,2.673-1.606a25.52,25.52,0,0,1,3.1-1.606,10.714,10.714,0,0,1,4.278-.749h3.636a27.208,27.208,0,0,0,3.742-.322c1.5-.214,2.246-0.461,2.246-0.749l-0.214-1.071a1.034,1.034,0,0,1,.749-0.963,1.348,1.348,0,0,0,.748-1.392q0-1.069-2.352-2.677a7.457,7.457,0,0,0-3.636-1.606h-21.6a36.42,36.42,0,0,1-6.737.643q-3.318,0-6.737.214l-5.133-.214-2.78.642a8.223,8.223,0,0,1-2.567.642H99.05q-1.925,0-1.925,1.713a12.929,12.929,0,0,0,.214,1.392,1.9,1.9,0,0,0,.642,1.392l2.139,1.713,4.491,3.641v2.141l-0.855,4.5a8.326,8.326,0,0,1-.642,2.355,8.369,8.369,0,0,0-.641,2.356H102.9a12.056,12.056,0,0,0,.963-1.392,13.768,13.768,0,0,0,1.176-2.249c-0.144.716-.394,1.82-0.748,3.319s-0.609,2.249-.749,2.249a1.681,1.681,0,0,1-1.069-.214l-0.428-.429-0.856,2.57,0.856,0.428,0.855-1.927v0.642a4.155,4.155,0,0,1-.534,2.035,15.928,15.928,0,0,1-1.177,1.82l-0.427-.643a17.7,17.7,0,0,0-3.1,4.39,43.635,43.635,0,0,0-2.353,5.353q-0.962,2.681-1.5,4.711a22.4,22.4,0,0,0-.535,2.249v1.284a4.086,4.086,0,0,0,1.5-1.391q0.426-.749.855-1.392a5.528,5.528,0,0,1,1.069-1.178,2.961,2.961,0,0,1,1.925-.535,6.1,6.1,0,0,1-1.069,3.64,6.1,6.1,0,0,0-1.069,3.64l1.283,0.214a7.374,7.374,0,0,1-1.283.964,2.931,2.931,0,0,1-1.5.535,0.859,0.859,0,0,1-.642-0.214,17.99,17.99,0,0,1-.748,3.962,9.222,9.222,0,0,0-.535,2.89l0.428,0.429,0.856-.429v0.429a3.464,3.464,0,0,1-.428,1.5l-0.428-.643-1.069,2.141a16.247,16.247,0,0,0-.855,2.142l-0.642,1.285a17.351,17.351,0,0,0-.428,1.927l-1.711,3.64v3.64l0.855,2.142,5.347,6.209a5.369,5.369,0,0,0,2.567,1.285,30.585,30.585,0,0,0,3.208.643l3.849-.857q5.133,0,10.8-.535t7.592-.536h2.888a8.411,8.411,0,0,1,2.673.429h8.341q4.7,0,8.448-.107a44.039,44.039,0,0,0,8.448-1.178h0.214a20.693,20.693,0,0,1,3.208-2.356,4.446,4.446,0,0,0,2.352-3.854,2.064,2.064,0,0,0-1.176-.642,22.174,22.174,0,0,0-2.566-.75q-1.393-.321-2.781-0.535a15.314,15.314,0,0,0-2.032-.214l-9.838-1.713a9.5,9.5,0,0,0-.962.107,11.97,11.97,0,0,1-1.711.107,14.9,14.9,0,0,0-1.818.107c-0.571.074-.929,0.107-1.069,0.107s-0.856-.07-2.139-0.214-2.069-.214-2.353-0.214h-0.855q-2.567,0-10.48-.643h-5.133a7.465,7.465,0,0,1-1.818-.321,7.482,7.482,0,0,0-1.817-.321h-0.856l-0.855-1.071v-2.569a10.917,10.917,0,0,1,.534-2.463q0.531-1.816,1.177-3.747l3.421-9.422,1.925-.214a4.965,4.965,0,0,0,2.139-.964,5.442,5.442,0,0,1,1.925-.963l2.352,0.428,3.209-.857,2.138,0.429,2.353-1.285a3.489,3.489,0,0,0,1.6-.535,3.525,3.525,0,0,1,1.6-.536l0.641,0.214h0.428a8.32,8.32,0,0,0,1.818-.214,7.525,7.525,0,0,1,1.39-.214A21.4,21.4,0,0,1,140.648,151.594Zm-43.309,5.782v0.642a3.694,3.694,0,0,0-2.566,1.285v-0.857a1.448,1.448,0,0,1,.428-1.07h2.139Zm150.776,71.306a1.841,1.841,0,0,1,1.5-1.285l0.428,0.857a5.465,5.465,0,0,0,2.246-.536,2.389,2.389,0,0,0,1.39-1.177l0.855,1.5h0.214a0.19,0.19,0,0,1-.214-0.214v-1.07a0.43,0.43,0,0,1,.321.107,0.437,0.437,0,0,0,.321.107,0.45,0.45,0,0,0,.321-0.107,0.819,0.819,0,0,1,.534-0.107l0.214,1.284,1.5,0.215a2.063,2.063,0,0,1,.856-2.784,3.409,3.409,0,0,1,2.139-.857,1.2,1.2,0,0,1,.641.429,6.937,6.937,0,0,0,1.925,1.07,2.215,2.215,0,0,1,.642-1.927,1.154,1.154,0,0,0,.641-0.856,4.611,4.611,0,0,0-.321-1.821,3.574,3.574,0,0,1-.32-1.391v-0.429l-2.353-6.638-0.642.643-0.855-1.928-1.283-.642-0.642.428-1.069-1.5,0.641-1.07,1.284-.857-1.5-4.711a8.173,8.173,0,0,1-.856-2.355l-1.069-3.212-0.214-2.142a4.814,4.814,0,0,0-.214-1.5l-0.642-2.356-0.641-.642a21.552,21.552,0,0,0-1.39-2.035q-1.179-1.6-1.6-2.248l0.641-.856-0.428-.857-1.711-1.071-1.283-4.068-4.705-9.208,1.283,0.643,0.428-.215v-0.856a6.746,6.746,0,0,0-1.069-2.141q-1.073-1.711-2.246-4.069t-2.246-4.711a10.105,10.105,0,0,1-1.069-4.068,4.222,4.222,0,0,0-1.818-3.212,6.282,6.282,0,0,1-2.246-3.855,9.364,9.364,0,0,0,1.391-.321c0.782-.214,1.6-0.462,2.459-0.749s1.638-.536,2.353-0.75a7.4,7.4,0,0,1,1.283-.321l2.139-.857a8.292,8.292,0,0,1,2.031-.856,4.723,4.723,0,0,0,1.818-.857l1.07-1.07V141.53a16.414,16.414,0,0,1,2.245-4.176,8.863,8.863,0,0,0,1.818-4.818v-0.642a1.839,1.839,0,0,0,1.07-1.927,10.126,10.126,0,0,0-.107-1.392,9.5,9.5,0,0,1-.107-1.392V125.9l-0.428-.428,0.855-2.57a15.257,15.257,0,0,0,1.07-3l-0.428-.857a4.956,4.956,0,0,1,.535-1.606,4.9,4.9,0,0,0,.534-1.82l1.07-1.927-0.428-1.071,0.856-1.285-0.428-.856-1.283.856q0-4.281-1.177-6.317a7.376,7.376,0,0,0-3.1-3,11.886,11.886,0,0,0-4.277-1.178,22.529,22.529,0,0,1-4.492-.857,6.764,6.764,0,0,1-1.5-.642,6.79,6.79,0,0,0-1.5-.642h-1.069l0.428,0.642h-0.856l-1.069-1.071a34.884,34.884,0,0,0-4.278.428q-3,.432-6.2,1.071t-5.774,1.392a9.692,9.692,0,0,0-3,1.178l-7.485,4.711a2.378,2.378,0,0,0,.321-1.178c0.07-.642.14-1.318,0.214-2.034s0.177-1.713.32-3c-0.427-1.141-.822-2.212-1.176-3.212a5.414,5.414,0,0,0-2.032-2.57H207.48a22.116,22.116,0,0,1-3.636-.321,22.133,22.133,0,0,0-3.636-.321h-2.566l-1.284.856a9.354,9.354,0,0,0-1.176,2.891,40.055,40.055,0,0,1-1.39,3.962q-3.639,10.278-7.058,22.055a170.7,170.7,0,0,0-5.133,23.983v1.5h0.428a0.918,0.918,0,0,1-.642.749c-0.427.215-.641,0.824-0.641,1.821H181.6l-2.78,10.064a7.555,7.555,0,0,0-.428-2.356c-0.427,0-.641.931-0.641,2.784s0.214,2.784.641,2.784l0.214-.428A113.466,113.466,0,0,0,176.789,179q-0.321,5.783-.321,8.994l-1.069-1.285-0.428-9.636a3.873,3.873,0,0,0-.641,2.034q-0.216,1.606-.428,3.426a30.02,30.02,0,0,0-.214,3.534v2.355a8.619,8.619,0,0,0,1.283,4.5,6.948,6.948,0,0,0,4.278,3l4.919,0.642,5.774-.857,4.919-1.713,1.07-1.284,0.214-.857v-1.5l-0.428-.642v-3l-0.428-1.071,0.428-.428c0-.284.033-0.964,0.107-2.034s0.107-1.747.107-2.035v-7.708l0.641-1.5-0.427-.428c0-1,.07-1.5.213-1.5a0.612,0.612,0,0,0,.214.428c0,0.144.141,0.214,0.428,0.214a0.19,0.19,0,0,0,.214-0.214,1.644,1.644,0,0,1,.214-0.643L197,169.581a2.973,2.973,0,0,1,.214-1.284c0.14-.285.321-0.643,0.535-1.071a7.381,7.381,0,0,0,.534-2.034,30.126,30.126,0,0,0,.214-4.176v-1.5l0.856-1.713h-0.428l-0.428-.642a0.619,0.619,0,0,1,.214-0.429,0.875,0.875,0,0,0,.214-0.642l0.428-.642-0.428-1.928q0-.426,1.069-5.781a21.519,21.519,0,0,1,2.246,1.071,11.951,11.951,0,0,0,3.315,1.07h3.208a0.981,0.981,0,0,1,.428.107,0.9,0.9,0,0,0,.427.107h0.214l-0.214.214a2.372,2.372,0,0,0,1.07-.214l2.994-.214a5.187,5.187,0,0,1,.642,1.713,0.853,0.853,0,0,1-.107.536,0.832,0.832,0,0,0-.107.535,2.847,2.847,0,0,0,.641,1.713l6.416,16.916,1.5,0.857,0.641,1.5q0.211,0.858.428,1.82c0.14,0.642.284,1.322,0.428,2.034l0.641,0.214v0.857a10.3,10.3,0,0,0,1.177,3.319,21.678,21.678,0,0,1,1.39,3.1l0.427,2.355q0.211,0.643,1.284,2.891a12.835,12.835,0,0,0,1.5,2.677l1.283-.643a0.622,0.622,0,0,0-.214-0.428,3.17,3.17,0,0,1,1.069-1.071,5.274,5.274,0,0,0,.642,1.5H232.5l-0.642,5.568a0.756,0.756,0,0,0,.855.856,0.443,0.443,0,0,0,.321-0.107,0.425,0.425,0,0,1,.321-0.107,1.494,1.494,0,0,0-.107-0.642,0.941,0.941,0,0,1-.107-0.428,0.493,0.493,0,0,1,.321-0.536,4.53,4.53,0,0,0,1.176-.963,6.486,6.486,0,0,1,1.711,3.319,8,8,0,0,0,.642,2.462,0.376,0.376,0,0,1,.428-0.428,3.7,3.7,0,0,1,1.069.428q-0.216,0,.321-0.321a1.056,1.056,0,0,0,.534-0.964,16.913,16.913,0,0,1,.321,2.784,5.712,5.712,0,0,0,.535,2.57l1.283,0.642a0.977,0.977,0,0,1-.107.428,0.924,0.924,0,0,0-.107.429,3.548,3.548,0,0,0,.749,2.248,3.9,3.9,0,0,1,.748,2.463,3.037,3.037,0,0,1-.213,1.284,5.028,5.028,0,0,0-.107-0.963,8.655,8.655,0,0,1-.107-1.606,3.154,3.154,0,0,0-1.6,2.676q0.1,1.391-.321,1.392l-0.214-.214a4.256,4.256,0,0,1,.428,1.927,2.089,2.089,0,0,0,.427,1.5H241.7a3.04,3.04,0,0,0,.214-1.285v-1.284a3.763,3.763,0,0,0,1.069.428h0.428a2.978,2.978,0,0,1-.214-1.285,1.853,1.853,0,0,1,.642-1.285,3.278,3.278,0,0,1,1.069,2.356,1.759,1.759,0,0,1-.428,1.285l-1.069-.429a4.658,4.658,0,0,1,1.069,2.463q0,0.963.214,0.963l1.5,0.215q-0.214.426-.534,1.284a4.358,4.358,0,0,0-.321,1.5,1.236,1.236,0,0,0,.214.857l-0.642.642-1.5-1.927a0.859,0.859,0,0,0-.428.857,2.438,2.438,0,0,0,.642,1.606,6.439,6.439,0,0,1,.855,1.177h0a12.165,12.165,0,0,0,3.636,2.57h0Zm-41.17-101.82a15.921,15.921,0,0,0,1.6-6.531,2.5,2.5,0,0,0-.748.214,0.7,0.7,0,0,0-.535.642l-0.428-1.284a3.267,3.267,0,0,1,.321-1.178,3.237,3.237,0,0,0,.321-1.178h1.5l1.5,0.214,2.566-.428q0-.642,1.5-1.285a25.513,25.513,0,0,1,3.529-1.177q2.031-.532,4.064-1.178a9.666,9.666,0,0,0,3.1-1.5l1.283-.428,0.214,0.214a4.138,4.138,0,0,0,2.032.321,18.7,18.7,0,0,1,2.032-.107,7.845,7.845,0,0,0,3.315-.643,7.3,7.3,0,0,1,3.1-.642,32.66,32.66,0,0,1-.321,5.139q-0.321,1.927-.749,3.533t-0.855,3.427q-0.43,1.821-.856,5.032a7.636,7.636,0,0,1-1.176,4.711,5.87,5.87,0,0,1-2.78,2.034,16.879,16.879,0,0,1-3.422.749,8.673,8.673,0,0,0-3.315,1.071q-1.5.432-4.278,1.392a28.311,28.311,0,0,1-4.063,1.178,17.711,17.711,0,0,1-6.523.535,15.06,15.06,0,0,0-7.165,1.178q0.852-2.781,1.5-4.818a7.49,7.49,0,0,1,1.07-2.463A69.055,69.055,0,0,1,206.945,126.862ZM247.9,210.7l-1.283-.429a5.331,5.331,0,0,0,.642-2.355,2.511,2.511,0,0,0-.856-2.141,1.719,1.719,0,0,1-.855-1.071v-0.214l1.069-1.713a5.18,5.18,0,0,0-2.032-.535q-0.321.1-1.39-.964V200.2a3.557,3.557,0,0,1,2.994,1.392,11.2,11.2,0,0,1,1.711,3.319,18.8,18.8,0,0,1,.856,3.855,30.736,30.736,0,0,1,.214,3.212c0,0.568-.074.856-0.214,0.856a1.334,1.334,0,0,1-1.07-1.071h0ZM232.93,200.416a3.446,3.446,0,0,0,.535,1.392c0.354,0.643.819,1.533,1.39,2.677a4.5,4.5,0,0,0,.214-1.713c0,0.284-.073,0-0.214-0.857a3.386,3.386,0,0,0-1.283-2.141,0.567,0.567,0,0,0-.642.642h0Zm-57.959-31.691a4.408,4.408,0,0,0-.32,1.392c-0.074.642-.144,1.358-0.214,2.141s-0.144,1.465-.214,2.034-0.107.93-.107,1.071h0.855v-6.638ZM246.4,217.119l0.214,1.07a1.744,1.744,0,0,1-1.069-.642Zm-7.7-13.705,0.428-.428c0-.288-0.358-0.428-1.07-0.428Zm8.341,11.135,0.214-1.285a1.824,1.824,0,0,0,.641,1.071ZM273.563,166.8a14.62,14.62,0,0,0,.856,2.783,35.535,35.535,0,0,0,1.5,3.641,33.909,33.909,0,0,0,6.523,10.278,26.92,26.92,0,0,0,8.234,5.889,32.969,32.969,0,0,0,9.41,2.676,77.6,77.6,0,0,0,10.052.643q1.926,0,4.813-.107a29.545,29.545,0,0,0,6.2-.964,31.341,31.341,0,0,0,7.058-2.891,32.479,32.479,0,0,0,7.378-5.674,10.6,10.6,0,0,0,1.711-4.818,10.244,10.244,0,0,1,1.283-4.39,7.2,7.2,0,0,1,1.283-2.784,10.13,10.13,0,0,0,1.5-2.783,42.721,42.721,0,0,1,1.176-4.818,24.382,24.382,0,0,0,.855-3.427,33.54,33.54,0,0,0,.428-4.282q0.1-2.46.107-7.388V131.894l0.428-1.285q-0.216-1.712-.535-3.105a13.812,13.812,0,0,1-.321-3.105v-0.856a1.475,1.475,0,0,1,.107-0.643,0.954,0.954,0,0,0,.107-0.428,7.921,7.921,0,0,0-.535-2.569c-0.357-1-.678-1.928-0.962-2.784a21.865,21.865,0,0,1-1.5-3.212,6.428,6.428,0,0,0-2.353-4.283,6.054,6.054,0,0,0-3.635-1.5c-0.428,0-.642.074-0.642,0.214a0.189,0.189,0,0,0,.214.215,0.631,0.631,0,0,1,.428.214H334.3a2.579,2.579,0,0,1-1.5-.321,2.587,2.587,0,0,0-1.5-.322,17.154,17.154,0,0,0-2.353.107q-0.642.111-2.566,0.536l-1.284.214a2.66,2.66,0,0,0-.962.214c-0.358.144-.678,0.288-0.962,0.428l-1.284.429,2.995,9.636q0,3.212-.214,5.246t-0.214,5.674v3l0.855,0.428a1.277,1.277,0,0,1,.642-0.642,2.084,2.084,0,0,1,1.069-.428c0,0.428.034,1.07,0.107,1.927a4.1,4.1,0,0,0,.535,1.927l-0.642,1.927,0.856,3.641-1.07-.429a4.192,4.192,0,0,1-.534,1.5,4.389,4.389,0,0,0-.535,1.927l-0.214,2.356v1.713c0,0.856.034,1.787,0.107,2.784s0.14,1.927.214,2.783a3.177,3.177,0,0,0,.321,1.5l-2.567,11.349V168.3a8.124,8.124,0,0,1-1.39,4.5,14.694,14.694,0,0,1-3.529,3.748A17.349,17.349,0,0,1,314.2,179a13.124,13.124,0,0,1-4.491.857,5.321,5.321,0,0,1-2.353.428q-1.283,0-2.566.107a4.267,4.267,0,0,1-2.46-.535,9.3,9.3,0,0,1-2.566-2.356,26.988,26.988,0,0,1-3.1-5.353,4.058,4.058,0,0,1-.535-1.392q-0.321-1.174-.749-2.677c-0.287-1-.534-1.927-0.748-2.783a11.358,11.358,0,0,1-.321-1.5q0-1.5-.321-4.6t-0.321-5.032v-2.57a37.657,37.657,0,0,1,.749-7.816,32.837,32.837,0,0,1,2.459-7.173V128.9a48.166,48.166,0,0,1,1.284-11.456,45.352,45.352,0,0,0,1.283-10.814v-1.713l-1.283-3.854-3.208-2.57q-4.067-.427-6.523-0.642t-4.492-.428c-1.357-.141-2.1-0.214-2.245-0.214l-1.711.642-1.284,2.784a5.79,5.79,0,0,1-.32,1.82,6.394,6.394,0,0,0-.321,2.034l1.5,1.071v0.428a6.929,6.929,0,0,1-.963,3.426,13.045,13.045,0,0,0-1.39,3.855h-0.427v-2.356l-0.642.428a7.046,7.046,0,0,1-.428,1.713,6.951,6.951,0,0,0-.428,1.713v3.855l-1.5,3.854-0.855,7.709a10.6,10.6,0,0,0,.321,1.82,10.228,10.228,0,0,1,.32,2.034l-0.641,3.855,0.641,2.569a10.871,10.871,0,0,1-.213,7.923l-0.428,6.852h0Zm3.85-60.6-1.069,3.64H277.2l0.428-1.5c0.14-.284.284-0.605,0.428-0.963a2.516,2.516,0,0,0,.214-0.75V106.2h-0.856ZM31.537,285.563h8.052a0.364,0.364,0,0,0,.363-0.349l0.8-5.1h9.865l0.8,5.1a0.363,0.363,0,0,0,.363.349h8.052a0.255,0.255,0,0,0,.29-0.349L51.485,237.2a0.342,0.342,0,0,0-.363-0.28H40.6a0.34,0.34,0,0,0-.363.28l-8.995,48.019a0.285,0.285,0,0,0,.29.349h0Zm13.927-32.572,0.29-2.586,0.435,2.586,2.974,19.641H42.2Zm32.569,32.5a15.689,15.689,0,0,0,7.689-2.027,15.059,15.059,0,0,0,5.441-5.277,13.858,13.858,0,0,0,2.031-7.374v-20.06a13.138,13.138,0,0,0-1.959-7.025,14.566,14.566,0,0,0-5.259-5.068,13.93,13.93,0,0,0-7.29-1.817l-13.565.07a0.252,0.252,0,0,0-.29.28l-0.145,48.019a0.314,0.314,0,0,0,.363.349ZM73.608,245.3l5.078-.07a5.368,5.368,0,0,1,4.026,1.572,5.218,5.218,0,0,1,1.7,3.88v20.13a5.866,5.866,0,0,1-1.85,4.334,6.221,6.221,0,0,1-4.534,1.817h-4.5Zm40.767,40.26a0.364,0.364,0,0,0,.363-0.349L124.6,237.2c0.048-.186-0.048-0.28-0.29-0.28h-8.124a0.341,0.341,0,0,0-.363.28l-5.8,32.012L104.075,237.2a0.342,0.342,0,0,0-.363-0.28h-8.2c-0.242,0-.339.094-0.29,0.28l10.01,48.019a0.363,0.363,0,0,0,.363.349h8.777Zm38.228,0a0.252,0.252,0,0,0,.291-0.279v-7.969a0.286,0.286,0,0,0-.291-0.349H137.66V264.734H152.6a0.253,0.253,0,0,0,.291-0.28l-0.073-7.9a0.253,0.253,0,0,0-.29-0.28H137.66v-10.9h14.871a0.252,0.252,0,0,0,.29-0.28v-7.829a0.286,0.286,0,0,0-.29-0.349H129.246a0.252,0.252,0,0,0-.29.28l-0.073,48.019a0.285,0.285,0,0,0,.29.349H152.6Zm14.653,0a0.539,0.539,0,0,0,.653-0.559L167.4,259.841l12.55,25.722h6.383a0.348,0.348,0,0,0,.363-0.419l-0.073-47.67a0.448,0.448,0,0,0-.435-0.559h-7.181a0.54,0.54,0,0,0-.653.559l0.362,26.98-12.259-27.539H159.93a0.5,0.5,0,0,0-.581.559l0.073,47.6a0.476,0.476,0,0,0,.58.489h7.254Zm41.2,0a0.286,0.286,0,0,0,.29-0.349l-0.073-39.841h9.5a0.286,0.286,0,0,0,.29-0.35V237.2a0.29,0.29,0,0,0-.363-0.28H190.541a0.253,0.253,0,0,0-.291.28l-0.072,7.828a0.315,0.315,0,0,0,.363.35h9.43v39.841a0.285,0.285,0,0,0,.29.349h8.2Zm34.129-1.188a14.356,14.356,0,0,0,5.15-5.1,13.635,13.635,0,0,0,1.923-7.13L249.515,237.2a0.253,0.253,0,0,0-.291-0.28H241.1a0.252,0.252,0,0,0-.29.28v34.948a5.615,5.615,0,0,1-1.56,4.019,5.13,5.13,0,0,1-3.881,1.643,5.047,5.047,0,0,1-3.808-1.643,5.615,5.615,0,0,1-1.56-4.019V237.2a0.252,0.252,0,0,0-.29-0.28h-8.124a0.252,0.252,0,0,0-.29.28l-0.145,34.948a13.5,13.5,0,0,0,1.922,7.06,14.517,14.517,0,0,0,5.187,5.137,13.762,13.762,0,0,0,7.108,1.922A14.039,14.039,0,0,0,242.587,284.375Zm21.29,1.188a0.286,0.286,0,0,0,.29-0.349l0.072-20.55h4.788a6.165,6.165,0,0,1,4.534,1.852,5.982,5.982,0,0,1,1.85,4.369v14.469c0,0.139.1,0.209,0.29,0.209h8.2a0.314,0.314,0,0,0,.362-0.349l-0.072-14.329a13.971,13.971,0,0,0-3.917-9.856,12.289,12.289,0,0,0,1.958-2.131,14.233,14.233,0,0,0,1.886-3.5,13.716,13.716,0,0,0-1.16-11.673,14.685,14.685,0,0,0-12.477-6.815H255.825a0.252,0.252,0,0,0-.29.28l-0.145,48.019a0.285,0.285,0,0,0,.29.349h8.2Zm0.362-40.26h6.239a5.677,5.677,0,0,1,4.026,1.607,5.231,5.231,0,0,1-.036,7.759,5.714,5.714,0,0,1-3.99,1.607h-6.239V245.3Zm49.835,40.26a0.252,0.252,0,0,0,.29-0.279v-7.969a0.286,0.286,0,0,0-.29-0.349H299.131V264.734h14.943a0.252,0.252,0,0,0,.29-0.28l-0.073-7.9a0.252,0.252,0,0,0-.29-0.28h-14.87v-10.9H314a0.252,0.252,0,0,0,.29-0.28v-7.829a0.286,0.286,0,0,0-.29-0.349H290.716a0.252,0.252,0,0,0-.29.28l-0.073,48.019a0.285,0.285,0,0,0,.29.349h23.431Z" transform="translate(-3.031 -38.313)"/>
</svg>
